<?xml version="1.0" standalone="no"?>
<!DOCTYPE svg PUBLIC "-//W3C//DTD SVG 20010904//EN"
 "http://www.w3.org/TR/2001/REC-SVG-20010904/DTD/svg10.dtd">
<svg version="1.0" xmlns="http://www.w3.org/2000/svg"
 width="2400.000000pt" height="2400.000000pt" viewBox="0 0 2400.000000 2400.000000"
 preserveAspectRatio="xMidYMid meet">
<metadata>
Created by potrace 1.14, written by Peter Selinger 2001-2017
</metadata>
<g transform="translate(0.000000,2400.000000) scale(0.100000,-0.100000)"
fill="#000000" stroke="none">
<path d="M3175 15193 c-57 -10 -161 -36 -174 -43 -138 -67 -170 -89 -276 -191
-38 -37 -106 -103 -151 -146 -93 -90 -476 -460 -628 -608 -56 -55 -219 -212
-361 -350 -142 -137 -310 -301 -374 -362 -63 -62 -116 -113 -116 -113 -1 0
-60 -57 -132 -127 -72 -71 -237 -231 -368 -358 -131 -126 -282 -274 -336 -327
-129 -127 -210 -253 -235 -368 -3 -14 -8 -38 -12 -55 -13 -63 -5 -265 12 -307
4 -9 9 -22 10 -30 9 -42 19 -68 29 -68 6 0 7 -3 4 -7 -8 -7 32 -80 77 -138 37
-49 -14 3 736 -755 344 -348 750 -759 903 -913 847 -857 891 -900 901 -890 3
4 6 1 6 -5 0 -33 288 -178 382 -192 4 -1 22 -6 40 -11 55 -16 128 -23 238 -23
109 0 216 11 260 27 8 2 47 15 85 27 147 47 279 130 428 270 299 281 2992
2973 3051 3050 93 120 172 294 192 419 3 18 8 43 11 55 9 38 11 240 3 291 -17
100 -22 121 -46 193 -45 135 -125 271 -213 366 -25 26 -99 103 -165 170 -288
295 -630 648 -936 967 -373 388 -400 412 -518 465 -99 44 -169 58 -292 57
-106 -1 -140 -5 -202 -27 -152 -51 -220 -100 -405 -287 -72 -74 -181 -184
-241 -245 l-109 -111 -284 282 c-175 174 -303 293 -334 310 -27 16 -53 34 -57
40 -4 5 -8 6 -8 1 0 -5 -6 -4 -13 2 -14 12 -75 33 -146 52 -45 12 -199 20
-236 13z"/>
<path d="M9607 14094 c-1 -2 -15 -5 -30 -8 -14 -2 -31 -7 -37 -11 -5 -3 -20
-8 -32 -10 -49 -10 -134 -82 -165 -142 -61 -117 -47 -326 27 -421 44 -56 137
-110 217 -127 40 -9 160 -10 215 -3 93 13 182 69 228 143 50 80 69 216 46 323
-27 129 -121 217 -266 249 -25 5 -199 11 -203 7z"/>
<path d="M12022 12959 c-10 -4 -33 -9 -52 -12 -19 -3 -48 -9 -64 -12 -45 -9
-189 -66 -207 -81 -8 -8 -20 -14 -25 -14 -5 0 -22 -11 -38 -25 -16 -14 -32
-25 -36 -25 -7 0 -115 -104 -145 -141 -29 -35 -67 -96 -100 -161 -16 -31 -31
-55 -33 -54 -5 5 -11 45 -17 111 -12 141 -15 163 -21 215 -10 83 -12 103 -13
127 l-1 22 -250 0 -250 0 0 -42 c-1 -54 -1 -2690 0 -2697 0 -11 580 -7 581 4
0 6 2 364 3 796 2 432 6 799 9 815 4 17 10 46 13 65 13 79 86 254 120 287 8 8
14 18 14 23 0 10 124 140 134 140 7 0 20 10 51 38 7 6 18 12 23 12 5 0 21 10
36 21 15 12 30 19 33 15 3 -3 11 -2 17 3 25 19 102 40 168 45 25 2 51 7 57 10
6 4 15 5 19 2 5 -3 44 -8 88 -11 43 -3 86 -7 94 -8 42 -9 108 -31 133 -43 15
-8 27 -11 28 -7 0 5 2 15 4 23 5 25 15 84 20 112 2 15 9 53 14 85 6 32 13 72
15 88 6 33 14 79 20 110 18 95 17 111 -6 123 -29 14 -101 33 -153 39 -63 8
-264 9 -283 2z"/>
<path d="M14007 12964 c-3 -3 -45 -7 -94 -9 -86 -4 -143 -9 -193 -20 -14 -3
-36 -7 -50 -10 -14 -3 -40 -9 -57 -14 -18 -5 -33 -8 -33 -6 0 3 -20 -4 -45
-15 -25 -11 -48 -19 -51 -18 -10 1 -140 -56 -187 -84 -26 -15 -50 -28 -52 -28
-7 0 -116 -84 -148 -114 -15 -14 -32 -26 -38 -26 -5 0 -9 -3 -9 -8 0 -4 -23
-32 -51 -62 -82 -88 -209 -298 -223 -370 -1 -3 -4 -9 -7 -15 -17 -28 -68 -224
-84 -325 -31 -193 -24 -506 15 -690 5 -25 12 -56 14 -70 7 -38 42 -150 61
-195 110 -264 255 -443 466 -574 57 -36 195 -106 209 -106 3 0 11 -4 17 -8 7
-5 21 -10 30 -12 10 -2 52 -13 93 -24 41 -11 92 -23 114 -27 21 -3 48 -8 60
-10 40 -9 172 -17 266 -17 81 0 255 9 255 13 0 1 16 4 35 6 46 6 191 41 227
55 15 6 36 12 46 14 31 7 190 86 247 124 81 53 87 58 181 151 153 152 256 334
319 563 12 43 23 88 25 100 17 96 26 172 32 250 3 51 6 106 7 122 2 17 -1 40
-6 53 -4 13 -5 21 0 19 8 -5 7 29 -3 138 -5 61 -10 98 -29 207 -22 130 -105
352 -168 453 -71 111 -88 133 -173 219 -70 70 -122 116 -132 116 -3 0 -14 7
-24 16 -21 19 -59 41 -159 92 -65 34 -110 50 -285 102 -16 4 -55 12 -85 15
-30 4 -64 9 -75 11 -11 2 -69 7 -130 10 -60 3 -112 7 -116 9 -3 3 -9 2 -12 -1z
m206 -479 c127 -26 261 -97 347 -185 49 -49 110 -132 110 -149 0 -6 4 -11 8
-11 10 0 63 -130 86 -210 16 -56 24 -98 31 -160 3 -19 7 -46 10 -60 8 -40 8
-259 0 -335 -5 -38 -9 -81 -10 -95 -2 -14 -4 -25 -5 -25 -1 0 -3 -9 -5 -20 -1
-11 -5 -31 -8 -45 -3 -14 -8 -34 -11 -46 -13 -61 -59 -174 -97 -237 -132 -223
-348 -339 -629 -340 -93 0 -168 9 -231 28 -27 7 -49 12 -49 10 0 -2 -28 10
-62 27 -68 33 -172 108 -201 145 -10 13 -24 29 -31 36 -37 38 -103 156 -134
242 -23 61 -48 176 -59 265 -9 69 -9 347 0 420 19 158 38 226 97 355 128 277
357 409 690 400 69 -2 138 -7 153 -10z"/>
<path d="M17285 12962 c-1 -2 -14 -5 -29 -7 -41 -8 -68 -14 -111 -25 -22 -6
-48 -12 -57 -15 -36 -8 -151 -67 -206 -104 -110 -76 -211 -193 -278 -323 -16
-32 -31 -58 -34 -58 -3 0 -6 17 -6 38 -1 20 -5 62 -8 92 -4 30 -9 78 -11 105
-3 28 -7 77 -11 110 -3 33 -6 71 -8 85 -4 50 -1 50 -259 49 -192 -1 -243 -4
-247 -15 -3 -7 -4 -625 -2 -1372 l2 -1358 283 1 c155 1 287 3 292 3 7 1 10
264 10 764 -1 691 2 805 20 910 7 40 57 191 65 198 3 3 16 26 28 53 12 26 27
47 32 47 6 0 10 6 10 13 1 36 165 178 260 224 54 26 178 61 203 57 9 -1 17 1
17 5 0 8 58 6 66 -2 3 -3 18 -1 34 3 16 4 31 5 35 2 3 -3 20 -7 38 -8 51 -2
107 -13 128 -24 10 -6 19 -8 19 -5 0 3 18 -4 40 -15 l40 -20 5 22 c2 13 7 34
9 48 2 14 9 52 14 85 16 91 24 139 25 153 0 6 3 12 6 12 3 0 7 17 7 38 1 20 5
53 8 72 4 19 9 53 12 75 l4 40 -62 18 c-35 9 -83 20 -108 24 -45 6 -269 11
-275 5z"/>
<path d="M22685 12953 c-33 -7 -73 -15 -90 -18 -16 -4 -61 -17 -100 -31 -38
-14 -74 -26 -80 -27 -5 -1 -12 -4 -15 -7 -3 -3 -35 -20 -72 -39 -38 -19 -68
-38 -68 -42 0 -4 -8 -10 -19 -14 -31 -10 -201 -183 -201 -205 0 -5 -6 -13 -13
-17 -7 -4 -21 -25 -32 -45 -20 -39 -31 -48 -32 -25 0 6 -4 68 -8 137 -6 106
-12 232 -14 277 -1 9 -66 12 -261 12 l-260 -1 0 -466 c-1 -1804 0 -2266 6
-2271 7 -8 574 -9 575 -1 1 3 2 363 3 800 3 842 4 862 52 1007 13 42 62 147
87 190 28 46 103 126 158 168 61 45 175 104 218 112 14 2 28 6 33 9 13 9 100
18 170 18 36 1 64 5 60 10 -3 5 0 6 6 2 6 -3 32 -9 59 -11 124 -14 240 -69
312 -149 14 -16 32 -35 39 -42 6 -7 12 -17 12 -23 0 -6 4 -11 8 -11 8 0 55
-100 67 -142 2 -5 3 -9 5 -10 9 -13 30 -124 37 -203 3 -44 7 -451 7 -906 l0
-825 291 0 290 1 1 60 c1 33 3 76 4 95 1 19 1 40 0 45 0 6 -1 125 0 265 0 140
1 262 1 270 -1 8 -1 62 0 120 0 58 0 112 0 120 -1 8 -1 62 0 120 0 58 0 114 0
125 -1 11 -3 180 -5 375 -2 195 -6 366 -10 380 -3 14 -10 48 -16 75 -6 28 -13
61 -16 74 -13 61 -70 187 -113 253 -147 224 -369 360 -666 409 -86 14 -292 19
-322 8 -12 -4 -23 -5 -25 -1 -2 4 -30 2 -63 -5z"/>
<path d="M9404 12898 c-3 -5 -6 -404 -5 -886 1 -483 2 -881 2 -887 -1 -5 -1
-152 -1 -325 0 -380 1 -319 -1 -481 -1 -75 1 -140 4 -146 7 -11 555 -12 572
-1 7 4 9 468 8 1365 -1 747 -2 1361 -2 1365 -2 12 -570 8 -577 -4z"/>
<path d="M18145 12897 c-7 -20 2 -1981 9 -2007 3 -14 9 -41 12 -60 20 -124
101 -317 164 -390 91 -105 142 -150 240 -205 68 -39 199 -89 260 -99 19 -3 49
-9 65 -12 127 -24 331 -24 480 0 60 9 124 22 128 26 1 1 9 3 17 5 61 13 232
87 258 112 7 7 17 13 22 13 5 0 15 6 22 13 7 6 29 24 48 39 72 55 165 157 206
227 10 17 21 31 24 31 3 0 6 -24 7 -52 0 -29 3 -116 7 -193 4 -77 7 -149 7
-161 0 -21 2 -21 253 -20 140 1 257 4 261 8 10 10 12 119 2 125 -4 2 -4 12 1
21 7 16 8 52 2 77 -1 6 -1 15 0 20 2 14 3 288 0 300 -1 6 -1 15 0 20 5 25 3
196 -3 201 -3 4 -3 14 1 23 7 15 8 51 2 76 -1 6 -1 15 0 20 2 14 3 288 0 300
-1 6 -1 15 0 20 5 25 3 196 -3 201 -3 4 -3 14 1 23 7 15 8 51 2 76 -1 6 -1 15
0 20 2 14 3 288 0 300 -1 6 -1 15 0 20 2 13 2 198 0 205 -1 3 -1 10 0 15 6 25
5 61 -2 76 -4 9 -4 19 -1 23 6 5 8 277 3 301 -1 6 -1 15 0 20 5 27 2 234 -4
244 -5 7 -94 10 -294 8 l-286 -2 -1 -790 c-1 -434 -5 -817 -9 -850 -57 -447
-403 -713 -863 -660 -88 10 -233 58 -233 77 0 5 -5 8 -10 8 -17 0 -68 50 -105
104 -31 46 -71 139 -81 191 -2 11 -6 31 -9 45 -15 76 -18 201 -18 1002 l-1
877 -288 0 c-213 0 -290 -4 -293 -12z"/>
</g>
</svg>
